<?xml version="1.0" encoding="UTF-8"?>
<svg xmlns="http://www.w3.org/2000/svg" viewBox="0 0 24 24" role="img" aria-label="PlateSolvePlus icon">
  <!--
    Simplified vector icon inspired by the provided badge image.
    Monochrome, scalable, theme-friendly (uses currentColor).
  -->
  <g fill="none" stroke="currentColor" stroke-width="1.6" stroke-linecap="round" stroke-linejoin="round">
    <!-- Outer badge -->
    <circle cx="12" cy="12" r="10.0"/>
    <circle cx="12" cy="12" r="8.8" opacity="0.35"/>

    <!-- Crosshair ticks -->
    <path d="M12 1.7v2.1M12 20.2v2.1M1.7 12h2.1M20.2 12h2.1" opacity="0.9"/>
    <path d="M12 4.6v1.6M12 17.8v1.6M4.6 12h1.6M17.8 12h1.6" opacity="0.7"/>

    <!-- Octopus head (stylized dome) -->
    <path d="M7.2 12.1c0-3.0 2.1-5.4 4.8-5.4s4.8 2.4 4.8 5.4" />

    <!-- Eyes -->
    <path d="M9.4 11.8c.6-.6 1.7-.6 2.3 0" />
    <path d="M12.3 11.8c.6-.6 1.7-.6 2.3 0" />

    <!-- Headband + small guider scope -->
    <path d="M8.0 8.6c1.2-1.0 2.6-1.6 4.0-1.6s2.8.6 4.0 1.6" opacity="0.9"/>
    <path d="M9.1 6.9l2.3-1.2" opacity="0.9"/>
    <rect x="8.3" y="5.5" width="3.6" height="1.9" rx="0.6" opacity="0.9"/>

    <!-- Camera body -->
    <path d="M8.0 12.6h1.2l.7-.9h4.2l.7.9H16c.7 0 1.2.5 1.2 1.2v3.0c0 .7-.5 1.2-1.2 1.2H8.0c-.7 0-1.2-.5-1.2-1.2v-3.0c0-.7.5-1.2 1.2-1.2z"/>
    <!-- Lens -->
    <circle cx="12" cy="15.3" r="1.9"/>
    <path d="M12 13.6v3.4M10.3 15.3h3.4" opacity="0.8"/>

    <!-- Tentacles (4 visible, stylized) -->
    <path d="M7.2 12.1c-1.4.8-2.3 1.9-2.6 3.4-.2 1.1.3 2.0 1.2 2.4 1.0.5 2.1 0 2.7-1.0" />
    <path d="M16.8 12.1c1.4.8 2.3 1.9 2.6 3.4.2 1.1-.3 2.0-1.2 2.4-1.0.5-2.1 0-2.7-1.0" />
    <path d="M9.0 18.0c-.6 1.2-1.6 1.9-2.7 2.0-1.0.1-1.8-.4-2.2-1.2" opacity="0.9"/>
    <path d="M15.0 18.0c.6 1.2 1.6 1.9 2.7 2.0 1.0.1 1.8-.4 2.2-1.2" opacity="0.9"/>

    <!-- Small "stars" -->
    <path d="M6.3 9.3l.4 1.0 1.0.4-1.0.4-.4 1.0-.4-1.0-1.0-.4 1.0-.4z" opacity="0.75"/>
    <path d="M17.2 8.8l.3.8.8.3-.8.3-.3.8-.3-.8-.8-.3.8-.3z" opacity="0.75"/>
  </g>
</svg>
